Coordinates
version=1
nRows=6
nColumns=46
inDegrees=yes

Units are S.I. units (second, meters, Newtons, ...)
Angles are in degrees.

endheader
time	pelvis_tilt	pelvis_list	pelvis_rotation	pelvis_tx	pelvis_ty	pelvis_tz	bb_angle	bb_tx	bb_ty	bb_tz	hip_flexion_r	hip_adduction_r	hip_rotation_r	knee_angle_r	knee_angle_r_beta	ankle_angle_r	subtalar_angle_r	mtp_angle_r	crank_angle_r	hip_flexion_l	hip_adduction_l	hip_rotation_l	knee_angle_l	knee_angle_l_beta	ankle_angle_l	subtalar_angle_l	mtp_angle_l	crank_angle_l	lumbar_extension	lumbar_bending	lumbar_rotation	arm_flex_r	arm_add_r	arm_rot_r	elbow_flex_r	pro_sup_r	wrist_flex_r	wrist_dev_r	arm_flex_l	arm_add_l	arm_rot_l	elbow_flex_l	pro_sup_l	wrist_flex_l	wrist_dev_l
      7.50500000	    -21.49747082	     -5.38149017	     -4.95520698	      0.16248278	      1.05005387	     -0.21064804	      0.00000000	      0.50000000	      0.00000000	      0.25000000	     88.76701696	      3.55589567	     -0.09697423	     92.00400609	      1.60577283	      4.09121659	    -10.70468232	      0.00000000	      0.00000000	     52.81739704	    -13.71394825	     -1.91926828	     66.54672106	      1.16145939	    -19.44366595	    -17.21230750	      0.00000000	      0.00000000	    -54.35584066	      1.82998077	      5.17630543	     85.55632550	     -9.09374769	     28.47745975	     58.48909515	     47.36384734	      0.00000000	      0.00000000	     81.54188853	    -17.73187179	     21.51789194	     60.97626798	     48.67240821	      0.00000000	      0.00000000
      7.51000000	    -21.64752532	     -5.15104195	     -4.66039407	      0.16319494	      1.04874606	     -0.21080699	      0.00000000	      0.50000000	      0.00000000	      0.25000000	     87.54662219	      3.22022226	     -0.00705165	     89.71840884	      1.56588163	      4.73794843	    -10.66280129	      0.00000000	      0.00000000	     53.96730887	    -13.32548162	     -1.47159692	     69.13987385	      1.20671844	    -18.81697993	    -17.27806234	      0.00000000	      0.00000000	    -54.20958912	      1.84454141	      4.81823786	     85.19194362	     -9.15339561	     27.91750388	     59.14731598	     47.44067391	      0.00000000	      0.00000000	     80.90264163	    -17.50557079	     20.65890300	     62.11945222	     48.78441175	      0.00000000	      0.00000000
      7.51500000	    -21.54719743	     -4.52218582	     -4.36734402	      0.16407449	      1.04811901	     -0.21069631	      0.00000000	      0.50000000	      0.00000000	      0.25000000	     86.05041040	      2.85189891	      0.46250236	     87.36386397	      1.52478707	      5.06856715	    -10.77022853	      0.00000000	      0.00000000	     54.68413835	    -12.66659884	     -1.46074959	     71.46065048	      1.24722364	    -18.59939158	    -17.58802343	      0.00000000	      0.00000000	    -54.23144764	      1.40176653	      4.14504849	     85.06485053	     -9.34311749	     27.81659445	     59.16456189	     47.43797870	      0.00000000	      0.00000000	     80.84871153	    -17.27292532	     20.68961093	     62.23022806	     48.80627558	      0.00000000	      0.00000000
      7.52000000	    -21.45282941	     -4.14450361	     -3.99901282	      0.16497612	      1.04705694	     -0.21082356	      0.00000000	      0.50000000	      0.00000000	      0.25000000	     84.54351666	      2.35513952	      0.52980664	     85.06254949	      1.48462156	      5.38519470	    -10.94595579	      0.00000000	      0.00000000	     55.59019318	    -12.13859607	     -1.22904838	     74.05853101	      1.29256521	    -17.88159148	    -18.11299091	      0.00000000	      0.00000000	    -54.31380245	      1.25848304	      3.75045239	     84.84118669	     -9.57543414	     27.63296468	     59.32247803	     47.45575603	      0.00000000	      0.00000000	     81.02788872	    -16.99491470	     20.56167226	     62.58580234	     48.84858470	      0.00000000	      0.00000000
      7.52500000	    -21.49989869	     -3.85135935	     -3.68911428	      0.16589448	      1.04597132	     -0.21059499	      0.00000000	      0.50000000	      0.00000000	      0.25000000	     83.09355270	      1.98908159	      0.49151044	     82.60568456	      1.44174118	      5.32150505	    -11.38348794	      0.00000000	      0.00000000	     56.69259135	    -11.78434850	     -0.90704194	     76.60375089	      1.33698767	    -17.22754788	    -17.78774845	      0.00000000	      0.00000000	    -54.27264617	      1.14568798	      3.58727585	     84.51884375	    -10.08330331	     27.24252572	     60.19594167	     47.59358556	      0.00000000	      0.00000000	     80.67846330	    -16.50604791	     20.10915265	     63.19860432	     48.90978931	      0.00000000	      0.00000000
      7.53000000	    -21.37202536	     -3.14658646	     -3.30244479	      0.16699450	      1.04520148	     -0.21051328	      0.00000000	      0.50000000	      0.00000000	      0.25000000	     81.52821208	      1.34627462	      0.74889082	     80.25456108	      1.40070633	      5.37435926	    -11.50856483	      0.00000000	      0.00000000	     57.47848439	    -11.06212177	     -0.99887985	     78.95749681	      1.37806829	    -16.79960029	    -18.09052491	      0.00000000	      0.00000000	    -54.30407255	      0.76115686	      2.85953122	     84.30390812	    -10.28248183	     27.17955798	     60.34396681	     47.62212542	      0.00000000	      0.00000000	     80.72450228	    -16.30919552	     20.05313759	     63.31244975	     48.92229346	      0.00000000	      0.00000000
